# xmcd
#
# Track frame offsets:
#	150
#	11267
#	24826
#	36721
#	47624
#	61287
#	71452
#	81627
#	92594
#	102527
#	115636
#	124372
#	137374
#	148840
#	160095
#	172022
#	183518
#	196851
#	208341
#	217276
#	229936
#	242520
#	256247
#	267345
#	278275
#	287984
#	299960
#	310149
#
# Disc length: 4310 seconds
#
# Revision: 1
# Processed by: cddbd v1.5.2PL0 Copyright (c) Steve Scherf et al.
# Submitted via: audiograbber 1.82.01
#
DISCID=af10d41c
DTITLE=Little Eva - Llll-Little Eva!: The Complete Dimension Recordings
DYEAR=2001
DGENRE=Soul
TTITLE0=The Loco-Motion
TTITLE1=He Is The Boy
TTITLE2=Some Kinda Wonderful
TTITLE3=I Have A Love
TTITLE4=Down Home
TTITLE5=Breaking Up Is Hard To Do
TTITLE6=Run To Her
TTITLE7=Uptown
TTITLE8=Where Do I Go?
TTITLE9=Up On The Roof
TTITLE10=Sharing You
TTITLE11=Will You Love Me Tomorrow?
TTITLE12=Keep Your Hands Off My Baby
TTITLE13=Let's Turkey Trot
TTITLE14=Swinging On A Star
TTITLE15=Old Smokey Loco-Motion
TTITLE16=Just A Little Girl
TTITLE17=The Trouble With Boys
TTITLE18=What I Gotta Do (To Make You Jealous)
TTITLE19=Let's Start The Party Again
TTITLE20=Please Hurt Me
TTITLE21=The Christmas Song
TTITLE22=I Wish You A Merry Christmas
TTITLE23=Makin' With The Magilla
TTITLE24=Wake Up John
TTITLE25=Takin' Back What I Said
TTITLE26=Get Him
TTITLE27=Another Night With The Boys
EXTD=
EXTT0=
EXTT1=
EXTT2=
EXTT3=
EXTT4=
EXTT5=
EXTT6=
EXTT7=
EXTT8=
EXTT9=
EXTT10=
EXTT11=
EXTT12=
EXTT13=
EXTT14=
EXTT15=
EXTT16=
EXTT17=
EXTT18=
EXTT19=
EXTT20=
EXTT21=
EXTT22=
EXTT23=
EXTT24=
EXTT25=
EXTT26=
EXTT27=
PLAYORDER=
